<svg version="1.1" id="Layer_1" xmlns="http://www.w3.org/2000/svg" xmlns:xlink="http://www.w3.org/1999/xlink" x="0px" y="0px"
	 width="100%" viewBox="0 0 500 500" enable-background="new 0 0 500 500" xml:space="preserve">
<path fill="#FFFFFF" opacity="1.000000" stroke="none" 
	d="
M221.000000,501.000000 
	C147.333344,501.000000 74.166702,501.000000 1.000039,501.000000 
	C1.000026,334.333405 1.000026,167.666779 1.000013,1.000129 
	C167.666565,1.000086 334.333130,1.000086 500.999756,1.000043 
	C500.999847,167.666534 500.999847,334.333069 500.999939,500.999817 
	C407.833344,501.000000 314.666656,501.000000 221.000000,501.000000 
M357.954803,280.476837 
	C360.277222,278.089478 362.527679,275.626495 364.939087,273.332672 
	C368.444977,269.997742 367.215851,267.856934 363.507660,266.034546 
	C360.184723,269.510681 357.029297,272.811584 353.187622,276.830353 
	C353.187622,273.881470 353.195068,272.130737 353.186279,270.380035 
	C353.151245,263.399780 353.367310,256.405884 352.997009,249.443268 
	C352.662048,243.144791 350.583344,241.822357 344.252472,242.912842 
	C342.014526,243.298325 339.770447,244.163467 337.556824,244.079636 
	C330.577515,243.815262 325.246033,246.676178 321.386932,252.234024 
	C317.110046,258.393585 314.952850,265.282379 314.903015,272.864502 
	C314.856689,279.917908 310.985016,285.161469 305.833160,290.041901 
	C304.847412,284.600861 304.498016,279.256714 304.485748,273.911835 
	C304.470459,267.257324 305.049133,260.589294 304.778748,253.951233 
	C304.552246,248.391068 301.565399,243.859467 296.233917,242.135742 
	C290.734863,240.357834 286.636444,243.663422 283.453491,247.866180 
	C281.403534,250.572952 279.654510,253.507706 277.118042,257.321472 
	C277.118042,253.056595 277.055115,249.962769 277.133698,246.872528 
	C277.236481,242.828949 275.815887,240.399200 271.370758,239.868851 
	C266.451721,239.281937 265.440887,242.033920 265.052643,245.943604 
	C264.551849,250.986160 263.864197,256.010162 263.127075,262.119293 
	C259.449738,260.551819 256.386200,259.726532 253.888840,258.055206 
	C251.014267,256.131409 248.722427,253.360199 246.029816,251.135818 
	C241.808777,247.648834 238.769363,247.628281 235.234177,251.731201 
	C232.780228,254.579269 231.222473,258.185333 229.111221,261.350647 
	C228.391983,262.428986 227.259094,263.907104 226.224274,263.984375 
	C221.273987,264.353851 218.182846,260.901001 218.226334,255.820435 
	C218.259094,251.994934 218.293350,248.126678 217.792511,244.348282 
	C216.752518,236.502686 214.863358,228.959290 208.364746,223.496674 
	C204.716156,220.429764 200.789886,218.193542 196.101471,220.553085 
	C191.458038,222.889999 191.256531,227.431793 191.867905,231.871689 
	C193.259796,241.979584 198.377930,250.223785 205.065353,257.679688 
	C206.317352,259.075562 208.163635,261.232513 207.822205,262.537659 
	C206.406082,267.951202 204.703934,273.394562 202.228409,278.391815 
	C200.387726,282.107513 197.848907,281.790741 196.324860,277.905670 
	C194.572250,273.438019 193.276474,268.769226 192.078354,264.111633 
	C190.629684,258.479980 189.620850,252.735214 188.174347,247.102905 
	C187.173218,243.204712 184.508850,241.746750 180.354584,241.881393 
	C176.075272,242.020065 176.422791,244.932693 175.762833,247.636765 
	C173.279312,257.812469 170.765640,267.983490 168.036636,278.095093 
	C167.125641,281.470581 165.535629,284.662811 164.256012,287.938782 
	C159.129150,265.721832 163.580002,243.973572 163.659149,221.769211 
	C174.464706,223.733688 182.244049,220.251099 186.829437,210.727112 
	C188.117981,208.050751 188.655502,205.017227 189.891068,202.308807 
	C190.387253,201.221130 191.835297,200.567673 192.850128,199.716599 
	C193.508957,200.716278 194.315384,201.652557 194.780579,202.735428 
	C195.162201,203.623734 194.807755,204.956940 195.353333,205.622833 
	C197.250229,207.937988 199.067001,211.073975 201.564224,211.877243 
	C203.234955,212.414688 206.074753,209.624878 208.253601,208.123886 
	C209.118729,207.527924 209.611465,206.391388 210.660172,204.981430 
	C211.083618,207.385483 211.166611,209.191635 211.736618,210.828140 
	C213.133072,214.837418 214.076263,219.245819 216.448914,222.615555 
	C219.751450,227.305969 224.602570,226.898346 228.085724,222.305328 
	C229.825180,220.011627 231.116150,217.377792 232.667145,214.802948 
	C233.334061,215.348129 233.664764,215.764145 234.094452,215.945129 
	C236.240128,216.848953 238.392395,218.179596 240.585754,218.266663 
	C241.271835,218.293900 242.353088,214.971893 242.807922,213.076096 
	C244.779587,204.857864 246.381577,196.545120 248.569534,188.387878 
	C249.290314,185.700592 251.371185,183.378098 252.830139,180.888809 
	C253.394760,180.985748 253.959396,181.082703 254.524033,181.179642 
	C255.056671,185.015900 255.873642,188.838577 256.057587,192.691483 
	C256.359283,199.011307 255.922089,205.381744 256.516296,211.662735 
	C256.691589,213.515396 258.977966,215.975876 260.851837,216.679184 
	C264.001221,217.861252 263.788422,214.593491 264.393524,212.670792 
	C265.839142,208.077362 267.170105,203.441223 268.823273,198.923279 
	C269.415222,197.305618 270.799957,195.978058 271.921387,194.377441 
	C273.626434,200.214584 274.539856,205.537598 276.716003,210.281387 
	C280.049408,217.547867 285.689728,217.898132 290.492523,211.714584 
	C291.141083,210.879562 291.800720,210.053162 292.697540,208.915359 
	C297.098969,216.606918 302.923462,220.279984 310.505615,217.263519 
	C312.621765,218.832809 314.105194,219.932877 315.588623,221.032944 
	C316.578644,219.618668 317.672729,218.264008 318.527374,216.772171 
	C319.279205,215.459763 319.763062,213.993835 320.494568,212.295593 
	C323.412476,220.403809 328.893219,223.745117 335.923859,222.040344 
	C342.875732,220.354691 345.946930,214.913544 344.333252,206.457199 
	C343.769806,203.504578 344.195465,201.942429 347.255951,200.796921 
	C350.109924,199.728699 352.616089,197.731339 355.579132,195.961502 
	C354.093964,194.389923 353.108612,193.347229 352.107971,192.288330 
	C348.687317,193.962173 345.502686,195.520523 342.234100,197.119949 
	C341.670593,195.990891 341.404449,195.388443 341.080414,194.818909 
	C337.229919,188.051483 333.496490,181.211334 329.406860,174.591309 
	C328.598663,173.283035 326.251343,171.984451 324.910156,172.239563 
	C323.805115,172.449738 322.741943,174.869156 322.347656,176.477982 
	C320.764038,182.939331 319.744263,189.549118 317.955139,195.947189 
	C315.878937,203.371933 310.394409,208.356064 304.160431,214.321793 
	C303.022949,209.623688 302.245667,206.259842 301.388550,202.916489 
	C300.545074,199.626526 300.966644,197.340942 304.743561,195.965424 
	C309.306335,194.303680 311.588043,190.362839 312.619720,185.728058 
	C313.595123,181.346115 311.455872,176.780563 307.258514,174.301758 
	C303.256165,171.938126 299.799286,173.406250 296.824951,176.193466 
	C290.607452,182.019791 288.923035,189.758972 289.604492,197.684555 
	C290.124603,203.733368 286.712708,207.008728 282.984497,212.318176 
	C282.457214,209.126404 282.120422,207.422745 281.902863,205.703979 
	C281.380707,201.579132 281.334900,197.342468 280.337463,193.340164 
	C278.325226,185.265762 272.656036,183.809265 266.838196,189.559601 
	C266.048401,190.340240 265.227112,191.089050 265.169556,191.143524 
	C262.758881,186.514954 261.115723,181.257614 257.791229,177.479950 
	C253.054550,172.097656 248.367493,176.785065 243.927185,179.866928 
	C243.701950,178.710541 243.584686,178.070236 243.451874,177.433197 
	C242.860779,174.597733 241.758987,172.654602 238.230667,172.736618 
	C234.339493,172.827087 234.168274,175.241257 233.941788,178.053894 
	C233.487793,183.691879 232.426819,189.325623 232.494278,194.950592 
	C232.597351,203.548050 227.641937,209.670731 223.486069,216.328934 
	C223.098602,213.454361 223.019730,210.683594 223.113617,207.918701 
	C223.379272,200.095352 223.965805,192.270569 223.846497,184.455200 
	C223.817062,182.527573 221.945953,179.409515 220.302277,178.920700 
	C208.712372,175.473923 199.625778,180.583527 195.166824,192.273987 
	C194.691483,193.520233 193.110718,194.344849 192.042786,195.365082 
	C191.140396,193.017181 191.288406,191.698761 191.270798,190.382553 
	C191.154999,181.726562 191.172974,173.063309 190.778366,164.419266 
	C190.625244,161.065033 188.989288,158.573318 184.817093,158.542419 
	C180.870285,158.513168 179.540634,160.403946 179.433105,163.944412 
	C179.362396,166.273010 179.095673,168.595306 178.932922,170.921555 
	C178.356171,179.164734 177.786392,187.408401 177.335876,193.896332 
	C170.621155,196.682098 164.558090,197.999893 160.032471,201.377609 
	C154.349808,205.618927 155.235672,212.026245 158.051941,216.768219 
	C155.507034,218.432724 151.856216,219.473831 151.342346,221.366592 
	C146.611191,238.792999 143.439209,256.548126 145.499527,274.663879 
	C146.196426,280.791687 148.206436,287.058472 150.954895,292.597534 
	C155.140289,301.032440 167.869781,302.290558 172.084824,291.666077 
	C174.346542,285.965118 176.309265,280.145538 178.518188,274.073547 
	C183.220322,283.156372 189.754303,289.496918 200.782791,288.679565 
	C213.468811,287.739349 215.673294,277.818481 217.644196,268.139374 
	C225.988586,268.945648 225.984299,268.945648 225.997543,276.448547 
	C225.999298,277.447174 225.993774,278.455627 226.121750,279.442657 
	C227.127625,287.201538 233.363419,293.678406 240.202621,294.108063 
	C247.556732,294.570038 251.974045,291.133301 254.083054,282.013428 
	C255.250748,276.964020 255.074554,271.603821 255.525223,266.127289 
	C257.897919,266.514587 260.426910,266.927399 263.129242,267.368469 
	C263.129242,268.699097 263.079834,269.687286 263.137268,270.669189 
	C263.506653,276.981903 263.766113,283.305298 264.336121,289.600342 
	C264.661957,293.198883 266.391357,295.628479 270.543762,296.005646 
	C275.044159,296.414429 276.063416,293.893982 276.897339,290.261261 
	C278.755859,282.165039 280.683228,274.060974 283.141479,266.133423 
	C285.145935,259.669250 288.245117,253.632278 294.033417,248.060226 
	C294.494202,250.851822 295.067017,252.718124 295.059692,254.582153 
	C295.038757,259.908997 294.516113,265.243591 294.689087,270.558899 
	C294.882660,276.506897 294.846954,282.655853 296.435272,288.287445 
	C297.294983,291.335632 300.911713,294.568085 304.036438,295.781219 
	C308.298981,297.436157 312.512268,295.388733 315.247864,291.342010 
	C316.359985,289.696808 317.438934,288.029144 318.513702,286.400970 
	C326.603699,289.708038 326.760376,289.635834 335.904877,278.528717 
	C336.439423,286.323364 335.957794,286.669495 329.398956,289.914612 
	C325.442596,291.872070 321.426117,294.271393 318.390289,297.398102 
	C313.436646,302.500092 314.435852,308.569611 320.090912,312.910767 
	C324.538055,316.324677 332.363678,315.896149 337.787872,311.746490 
	C343.863281,307.098663 347.400421,300.702393 349.152405,293.428894 
	C350.424957,288.145844 352.785767,283.863953 357.954803,280.476837 
M360.954498,232.654312 
	C362.370148,236.546799 363.785767,240.439285 365.588715,245.396805 
	C368.397430,238.055710 366.323425,228.578186 376.832123,228.397079 
	C373.983368,225.529892 370.990112,223.374191 369.195801,220.476212 
	C367.309784,217.430206 366.571442,213.673615 365.331604,210.227539 
	C362.660858,217.504257 363.794556,226.673584 351.480408,227.784729 
	C355.537476,229.736389 357.978638,230.910721 360.954498,232.654312 
M143.840790,318.835907 
	C142.252380,318.010864 140.452698,317.433929 139.124771,316.303009 
	C137.098801,314.577576 135.399017,312.469177 133.560730,310.523376 
	C133.082489,310.850189 132.604248,311.177032 132.126007,311.503845 
	C132.077805,318.330536 131.972092,325.160034 132.167557,331.974731 
	C132.942795,331.978912 133.718018,331.983093 134.493256,331.987244 
	C134.493256,326.924042 134.493256,321.860809 134.493256,316.797607 
	C134.886459,316.715790 135.279648,316.633972 135.672852,316.552124 
	C137.863846,319.145874 140.054855,321.739594 142.482513,324.613464 
	C144.888748,321.707825 147.058914,319.087250 150.291107,315.184235 
	C150.291107,321.760651 150.291107,326.837616 150.291107,332.769165 
	C153.158981,329.534821 153.654053,316.961243 151.405457,309.723175 
	C148.691040,312.998047 146.520569,315.616638 143.840790,318.835907 
M138.011185,142.153809 
	C135.764862,145.049957 133.518555,147.946106 131.148560,151.001709 
	C138.408554,151.027252 138.188507,158.034103 140.287170,163.687607 
	C142.085968,157.739166 141.800674,150.917633 150.023102,149.458405 
	C142.360046,147.282379 142.589951,140.271164 139.552872,133.959991 
	C138.914566,137.304703 138.527222,139.334351 138.011185,142.153809 
M358.695068,316.846832 
	C354.334351,319.392822 353.492523,323.314117 355.301819,327.556946 
	C357.625977,333.007202 362.424377,332.412628 367.160706,331.139923 
	C366.512360,336.445831 366.512360,336.445831 355.949097,334.273193 
	C357.221344,338.148315 360.455933,339.030182 363.387665,338.371033 
	C365.759735,337.837708 369.333618,335.735657 369.581451,333.943268 
	C370.377106,328.189331 369.877350,322.256256 369.877350,316.502289 
	C366.007568,316.502289 362.706573,316.502289 358.695068,316.846832 
M278.225037,329.923279 
	C275.003815,330.159668 272.949554,328.861420 271.944397,325.069672 
	C276.498566,325.069672 280.563446,325.069672 284.615906,325.069672 
	C284.662384,319.404114 282.351532,316.432190 277.940155,316.021942 
	C273.610809,315.619324 270.168152,318.217560 269.320190,322.527527 
	C268.518982,326.599854 270.983032,330.846527 274.797150,331.966797 
	C279.004883,333.202667 282.016632,331.745758 283.920715,326.776825 
	C281.816223,328.044006 280.387390,328.904327 278.225037,329.923279 
M236.935455,329.824677 
	C235.550995,328.599060 234.166550,327.373413 232.782104,326.147797 
	C233.056641,325.711700 233.331192,325.275635 233.605743,324.839539 
	C237.664368,324.839539 241.722977,324.839539 245.793228,324.839539 
	C245.391800,318.809387 242.860703,316.025085 238.147476,315.998383 
	C233.868622,315.974182 230.633362,318.950104 230.203796,323.305328 
	C229.769745,327.706085 232.769730,331.588440 237.059662,332.177643 
	C241.309921,332.761414 243.514633,331.359924 244.335724,327.550018 
	C242.125305,328.346527 239.914902,329.143005 236.935455,329.824677 
M193.591187,314.492798 
	C193.312576,312.977325 193.033951,311.461853 192.755325,309.946381 
	C192.379929,310.028442 192.004532,310.110535 191.629135,310.192596 
	C191.629135,317.440277 191.629135,324.687988 191.629135,331.935699 
	C192.156662,331.971771 192.684174,332.007843 193.211700,332.043915 
	C193.362900,328.894745 193.014862,325.603088 193.857162,322.651123 
	C194.343170,320.947784 196.602859,319.021576 198.351059,318.684814 
	C199.375320,318.487518 201.596878,321.011597 202.138290,322.681580 
	C202.823013,324.793671 202.243408,327.290314 202.424179,329.604279 
	C202.491455,330.465454 203.165894,331.279175 203.563461,332.114532 
	C204.032242,332.024994 204.501007,331.935455 204.969788,331.845917 
	C204.969788,328.794189 205.133270,325.731689 204.932877,322.693176 
	C204.601349,317.666321 201.510651,315.507172 196.445160,316.287964 
	C195.573792,316.422241 194.568802,315.689667 193.591187,314.492798 
M289.548279,330.956268 
	C293.598724,331.309540 297.649170,331.662842 301.620789,332.009216 
	C301.620789,326.453094 301.620789,321.417389 301.620789,315.770325 
	C296.995850,316.573730 292.331207,316.345734 288.846039,318.262329 
	C284.832184,320.469757 285.376953,325.660736 289.548279,330.956268 
M156.048767,327.314392 
	C159.268845,335.003571 165.606720,331.097076 170.869232,331.449860 
	C170.869232,326.353912 170.869232,321.418579 170.869232,316.500732 
	C169.243164,316.584290 167.813461,316.954468 166.524307,316.675354 
	C158.728607,314.987549 154.904053,318.496765 156.048767,327.314392 
M349.834595,322.134674 
	C349.985779,325.421051 350.136932,328.707428 350.288116,331.993805 
	C351.066620,331.978638 351.845123,331.963470 352.623627,331.948334 
	C352.429962,328.067596 352.952606,323.977295 351.891510,320.350311 
	C349.767181,313.088928 343.371216,317.681732 339.003418,316.479004 
	C337.439056,323.188660 338.002655,330.003510 341.029816,332.419525 
	C341.029816,329.269531 340.671722,326.628052 341.146851,324.146057 
	C341.505463,322.272766 342.638397,319.473206 343.954956,319.133575 
	C345.551300,318.721710 347.703461,320.464386 349.834595,322.134674 
M315.298492,319.153809 
	C315.798676,323.398743 314.192657,327.956970 317.210602,331.913940 
	C318.029510,329.315918 318.095337,326.758972 318.013214,324.206787 
	C317.905426,320.856628 319.203674,318.470978 322.742523,318.537659 
	C326.143402,318.601776 326.942078,321.191589 326.967773,324.172516 
	C326.990295,326.786652 327.187927,329.399261 327.369415,333.342499 
	C330.442627,328.295807 330.202332,320.885101 327.784241,318.099274 
	C325.266815,315.199005 317.369568,315.347046 315.298492,319.153809 
M215.813950,316.278381 
	C213.509796,318.467407 213.096863,327.521423 215.780716,331.951447 
	C216.475327,329.103821 216.607361,326.209229 216.669266,323.313141 
	C216.732941,320.334991 218.232422,318.087036 221.123123,318.681122 
	C222.738510,319.013123 224.408340,321.349365 225.121353,323.151367 
	C225.806580,324.883148 225.180801,327.099640 225.345444,329.085388 
	C225.431213,330.119934 225.979080,331.116180 226.318207,332.129700 
	C226.758759,332.039612 227.199295,331.949493 227.639832,331.859375 
	C227.639832,328.012054 228.433716,323.948181 227.456985,320.367279 
	C225.925476,314.752380 220.997177,315.901886 215.813950,316.278381 
M181.430374,318.376373 
	C183.537613,319.315338 185.644852,320.254272 188.103806,321.349915 
	C186.422577,316.912445 183.564163,315.288422 179.628098,316.119446 
	C175.614136,316.966858 172.953400,320.789459 173.563034,325.100189 
	C174.170471,329.395081 176.509308,332.105743 181.071030,332.226959 
	C184.514374,332.318481 187.109573,331.078766 187.834351,326.956451 
	C183.909470,329.999054 180.134033,332.151550 176.806961,326.957214 
	C174.691238,323.654083 176.244171,320.544678 181.430374,318.376373 
M265.821259,332.067902 
	C266.673645,331.773407 267.526001,331.478912 268.378387,331.184418 
	C268.316925,330.739105 268.255463,330.293793 268.194031,329.848480 
	C264.675568,329.660095 261.157074,329.471710 256.619873,329.228760 
	C256.619873,323.121094 256.619873,317.117920 256.619873,311.114716 
	C256.059937,311.133484 255.500015,311.152252 254.940094,311.170990 
	C254.940094,318.025787 254.940094,324.880554 254.940094,332.069183 
	C258.358459,332.069183 261.662018,332.069183 265.821259,332.067902 
M308.457947,317.778015 
	C307.368896,317.617462 306.279816,317.456879 305.190765,317.296326 
	C305.190765,322.208405 305.190765,327.120514 305.190765,332.032593 
	C305.930511,332.038361 306.670258,332.044128 307.410034,332.049866 
	C307.627106,329.132874 307.201385,325.956573 308.243713,323.372467 
	C309.267242,320.834900 311.782440,318.899048 313.643036,316.699158 
	C313.527832,316.437256 313.412628,316.175354 313.297424,315.913422 
	C311.912170,316.443878 310.526947,316.974335 308.457947,317.778015 
M379.871765,217.508926 
	C380.933105,216.222015 381.994476,214.935089 382.725250,214.049011 
	C381.187378,211.501114 379.738464,209.100555 378.521149,207.083710 
	C377.135529,209.524857 375.612000,212.209015 374.346130,214.439178 
	C375.712189,216.336823 377.249298,218.472092 378.830231,220.668274 
	C379.081604,219.980286 379.402863,219.100967 379.871765,217.508926 
M124.801842,165.009445 
	C126.396652,167.492874 127.991463,169.976303 129.379059,172.137070 
	C130.520065,169.854248 131.768631,167.356216 133.014175,164.864243 
	C131.873230,162.950333 130.531616,160.699768 129.403137,158.806763 
	C128.068024,160.823975 126.769272,162.786224 124.801842,165.009445 
M334.980927,329.109772 
	C334.980927,324.840485 334.980927,320.571167 334.980927,316.301880 
	C334.216522,316.314697 333.452087,316.327515 332.687683,316.340332 
	C332.687683,321.295685 332.687683,326.251068 332.687683,331.206421 
	C333.448792,330.807404 334.209869,330.408356 334.980927,329.109772 
M207.988388,325.427551 
	C208.123276,327.588928 208.258179,329.750275 208.426727,332.450928 
	C211.715332,329.445740 211.847260,319.319031 207.988373,316.204742 
	C207.988373,318.963257 207.988373,321.721802 207.988388,325.427551 
z"/>
<path fill="#DA3E7C" opacity="1.000000" stroke="none" 
	d="
M357.686035,280.708557 
	C352.785767,283.863953 350.424957,288.145844 349.152405,293.428894 
	C347.400421,300.702393 343.863281,307.098663 337.787872,311.746490 
	C332.363678,315.896149 324.538055,316.324677 320.090912,312.910767 
	C314.435852,308.569611 313.436646,302.500092 318.390289,297.398102 
	C321.426117,294.271393 325.442596,291.872070 329.398956,289.914612 
	C335.957794,286.669495 336.439423,286.323364 335.904877,278.528717 
	C326.760376,289.635834 326.603699,289.708038 318.513702,286.400970 
	C317.438934,288.029144 316.359985,289.696808 315.247864,291.342010 
	C312.512268,295.388733 308.298981,297.436157 304.036438,295.781219 
	C300.911713,294.568085 297.294983,291.335632 296.435272,288.287445 
	C294.846954,282.655853 294.882660,276.506897 294.689087,270.558899 
	C294.516113,265.243591 295.038757,259.908997 295.059692,254.582153 
	C295.067017,252.718124 294.494202,250.851822 294.033417,248.060226 
	C288.245117,253.632278 285.145935,259.669250 283.141479,266.133423 
	C280.683228,274.060974 278.755859,282.165039 276.897339,290.261261 
	C276.063416,293.893982 275.044159,296.414429 270.543762,296.005646 
	C266.391357,295.628479 264.661957,293.198883 264.336121,289.600342 
	C263.766113,283.305298 263.506653,276.981903 263.137268,270.669189 
	C263.079834,269.687286 263.129242,268.699097 263.129242,267.368469 
	C260.426910,266.927399 257.897919,266.514587 255.525223,266.127289 
	C255.074554,271.603821 255.250748,276.964020 254.083054,282.013428 
	C251.974045,291.133301 247.556732,294.570038 240.202621,294.108063 
	C233.363419,293.678406 227.127625,287.201538 226.121750,279.442657 
	C225.993774,278.455627 225.999298,277.447174 225.997543,276.448547 
	C225.984299,268.945648 225.988586,268.945648 217.644196,268.139374 
	C215.673294,277.818481 213.468811,287.739349 200.782791,288.679565 
	C189.754303,289.496918 183.220322,283.156372 178.518188,274.073547 
	C176.309265,280.145538 174.346542,285.965118 172.084824,291.666077 
	C167.869781,302.290558 155.140289,301.032440 150.954895,292.597534 
	C148.206436,287.058472 146.196426,280.791687 145.499527,274.663879 
	C143.439209,256.548126 146.611191,238.792999 151.342346,221.366592 
	C151.856216,219.473831 155.507034,218.432724 158.051941,216.768219 
	C155.235672,212.026245 154.349808,205.618927 160.032471,201.377609 
	C164.558090,197.999893 170.621155,196.682098 177.335876,193.896332 
	C177.786392,187.408401 178.356171,179.164734 178.932922,170.921555 
	C179.095673,168.595306 179.362396,166.273010 179.433105,163.944412 
	C179.540634,160.403946 180.870285,158.513168 184.817093,158.542419 
	C188.989288,158.573318 190.625244,161.065033 190.778366,164.419266 
	C191.172974,173.063309 191.154999,181.726562 191.270798,190.382553 
	C191.288406,191.698761 191.140396,193.017181 192.042786,195.365082 
	C193.110718,194.344849 194.691483,193.520233 195.166824,192.273987 
	C199.625778,180.583527 208.712372,175.473923 220.302277,178.920700 
	C221.945953,179.409515 223.817062,182.527573 223.846497,184.455200 
	C223.965805,192.270569 223.379272,200.095352 223.113617,207.918701 
	C223.019730,210.683594 223.098602,213.454361 223.486069,216.328934 
	C227.641937,209.670731 232.597351,203.548050 232.494278,194.950592 
	C232.426819,189.325623 233.487793,183.691879 233.941788,178.053894 
	C234.168274,175.241257 234.339493,172.827087 238.230667,172.736618 
	C241.758987,172.654602 242.860779,174.597733 243.451874,177.433197 
	C243.584686,178.070236 243.701950,178.710541 243.927185,179.866928 
	C248.367493,176.785065 253.054550,172.097656 257.791229,177.479950 
	C261.115723,181.257614 262.758881,186.514954 265.169556,191.143524 
	C265.227112,191.089050 266.048401,190.340240 266.838196,189.559601 
	C272.656036,183.809265 278.325226,185.265762 280.337463,193.340164 
	C281.334900,197.342468 281.380707,201.579132 281.902863,205.703979 
	C282.120422,207.422745 282.457214,209.126404 282.984497,212.318176 
	C286.712708,207.008728 290.124603,203.733368 289.604492,197.684555 
	C288.923035,189.758972 290.607452,182.019791 296.824951,176.193466 
	C299.799286,173.406250 303.256165,171.938126 307.258514,174.301758 
	C311.455872,176.780563 313.595123,181.346115 312.619720,185.728058 
	C311.588043,190.362839 309.306335,194.303680 304.743561,195.965424 
	C300.966644,197.340942 300.545074,199.626526 301.388550,202.916489 
	C302.245667,206.259842 303.022949,209.623688 304.160431,214.321793 
	C310.394409,208.356064 315.878937,203.371933 317.955139,195.947189 
	C319.744263,189.549118 320.764038,182.939331 322.347656,176.477982 
	C322.741943,174.869156 323.805115,172.449738 324.910156,172.239563 
	C326.251343,171.984451 328.598663,173.283035 329.406860,174.591309 
	C333.496490,181.211334 337.229919,188.051483 341.080414,194.818909 
	C341.404449,195.388443 341.670593,195.990891 342.234100,197.119949 
	C345.502686,195.520523 348.687317,193.962173 352.107971,192.288330 
	C353.108612,193.347229 354.093964,194.389923 355.579132,195.961502 
	C352.616089,197.731339 350.109924,199.728699 347.255951,200.796921 
	C344.195465,201.942429 343.769806,203.504578 344.333252,206.457199 
	C345.946930,214.913544 342.875732,220.354691 335.923859,222.040344 
	C328.893219,223.745117 323.412476,220.403809 320.494568,212.295593 
	C319.763062,213.993835 319.279205,215.459763 318.527374,216.772171 
	C317.672729,218.264008 316.578644,219.618668 315.588623,221.032944 
	C314.105194,219.932877 312.621765,218.832809 310.505615,217.263519 
	C302.923462,220.279984 297.098969,216.606918 292.697540,208.915359 
	C291.800720,210.053162 291.141083,210.879562 290.492523,211.714584 
	C285.689728,217.898132 280.049408,217.547867 276.716003,210.281387 
	C274.539856,205.537598 273.626434,200.214584 271.921387,194.377441 
	C270.799957,195.978058 269.415222,197.305618 268.823273,198.923279 
	C267.170105,203.441223 265.839142,208.077362 264.393524,212.670792 
	C263.788422,214.593491 264.001221,217.861252 260.851837,216.679184 
	C258.977966,215.975876 256.691589,213.515396 256.516296,211.662735 
	C255.922089,205.381744 256.359283,199.011307 256.057587,192.691483 
	C255.873642,188.838577 255.056671,185.015900 254.524033,181.179642 
	C253.959396,181.082703 253.394760,180.985748 252.830139,180.888809 
	C251.371185,183.378098 249.290314,185.700592 248.569534,188.387878 
	C246.381577,196.545120 244.779587,204.857864 242.807922,213.076096 
	C242.353088,214.971893 241.271835,218.293900 240.585754,218.266663 
	C238.392395,218.179596 236.240128,216.848953 234.094452,215.945129 
	C233.664764,215.764145 233.334061,215.348129 232.667145,214.802948 
	C231.116150,217.377792 229.825180,220.011627 228.085724,222.305328 
	C224.602570,226.898346 219.751450,227.305969 216.448914,222.615555 
	C214.076263,219.245819 213.133072,214.837418 211.736618,210.828140 
	C211.166611,209.191635 211.083618,207.385483 210.660172,204.981430 
	C209.611465,206.391388 209.118729,207.527924 208.253601,208.123886 
	C206.074753,209.624878 203.234955,212.414688 201.564224,211.877243 
	C199.067001,211.073975 197.250229,207.937988 195.353333,205.622833 
	C194.807755,204.956940 195.162201,203.623734 194.780579,202.735428 
	C194.315384,201.652557 193.508957,200.716278 192.850128,199.716583 
	C191.835297,200.567673 190.387253,201.221130 189.891068,202.308807 
	C188.655502,205.017227 188.117981,208.050751 186.829437,210.727112 
	C182.244049,220.251099 174.464706,223.733688 163.659149,221.769211 
	C163.580002,243.973572 159.129150,265.721832 164.256012,287.938782 
	C165.535629,284.662811 167.125641,281.470581 168.036636,278.095093 
	C170.765640,267.983490 173.279312,257.812469 175.762833,247.636765 
	C176.422791,244.932693 176.075272,242.020065 180.354584,241.881393 
	C184.508850,241.746750 187.173218,243.204712 188.174347,247.102905 
	C189.620850,252.735214 190.629684,258.479980 192.078354,264.111633 
	C193.276474,268.769226 194.572250,273.438019 196.324860,277.905670 
	C197.848907,281.790741 200.387726,282.107513 202.228409,278.391815 
	C204.703934,273.394562 206.406082,267.951202 207.822205,262.537659 
	C208.163635,261.232513 206.317352,259.075562 205.065353,257.679688 
	C198.377930,250.223785 193.259796,241.979584 191.867905,231.871689 
	C191.256531,227.431793 191.458038,222.889999 196.101471,220.553085 
	C200.789886,218.193542 204.716156,220.429764 208.364746,223.496674 
	C214.863358,228.959290 216.752518,236.502686 217.792511,244.348282 
	C218.293350,248.126678 218.259094,251.994934 218.226334,255.820435 
	C218.182846,260.901001 221.273987,264.353851 226.224274,263.984375 
	C227.259094,263.907104 228.391983,262.428986 229.111221,261.350647 
	C231.222473,258.185333 232.780228,254.579269 235.234177,251.731201 
	C238.769363,247.628281 241.808777,247.648834 246.029816,251.135818 
	C248.722427,253.360199 251.014267,256.131409 253.888840,258.055206 
	C256.386200,259.726532 259.449738,260.551819 263.127075,262.119293 
	C263.864197,256.010162 264.551849,250.986160 265.052643,245.943604 
	C265.440887,242.033920 266.451721,239.281937 271.370758,239.868851 
	C275.815887,240.399200 277.236481,242.828949 277.133698,246.872528 
	C277.055115,249.962769 277.118042,253.056595 277.118042,257.321472 
	C279.654510,253.507706 281.403534,250.572952 283.453491,247.866180 
	C286.636444,243.663422 290.734863,240.357834 296.233917,242.135742 
	C301.565399,243.859467 304.552246,248.391068 304.778748,253.951233 
	C305.049133,260.589294 304.470459,267.257324 304.485748,273.911835 
	C304.498016,279.256714 304.847412,284.600861 305.833160,290.041901 
	C310.985016,285.161469 314.856689,279.917908 314.903015,272.864502 
	C314.952850,265.282379 317.110046,258.393585 321.386932,252.234024 
	C325.246033,246.676178 330.577515,243.815262 337.556824,244.079636 
	C339.770447,244.163467 342.014526,243.298325 344.252472,242.912842 
	C350.583344,241.822357 352.662048,243.144791 352.997009,249.443268 
	C353.367310,256.405884 353.151245,263.399780 353.186279,270.380035 
	C353.195068,272.130737 353.187622,273.881470 353.187622,276.830353 
	C357.029297,272.811584 360.184723,269.510681 363.507660,266.034546 
	C367.215851,267.856934 368.444977,269.997742 364.939087,273.332672 
	C362.527679,275.626495 360.277222,278.089478 357.686035,280.708557 
M242.228073,260.003021 
	C237.443466,272.700653 237.007950,283.251556 241.292206,288.741760 
	C246.500427,283.855621 248.034988,277.592499 247.195877,271.073517 
	C246.680801,267.071899 244.275024,263.313660 242.228073,260.003021 
M329.863647,259.492706 
	C328.199738,266.336975 326.535797,273.181213 324.871887,280.025482 
	C325.461670,280.171387 326.051422,280.317322 326.641205,280.463257 
	C331.203979,270.301880 337.185425,260.701019 339.686981,248.554565 
	C333.615784,250.546249 332.141998,254.908386 329.863647,259.492706 
M169.669281,201.739075 
	C165.332642,203.688354 162.718277,206.977356 163.247482,211.778564 
	C163.444946,213.569977 164.962250,215.924255 166.507980,216.618317 
	C167.601517,217.109344 170.548187,215.679016 171.285980,214.343262 
	C173.505066,210.325714 175.047745,205.934555 177.351730,200.520065 
	C173.881561,200.971420 172.146851,201.197052 169.669281,201.739075 
M205.319473,228.050568 
	C204.194260,227.196014 203.069061,226.341446 201.399826,225.073730 
	C199.730103,235.298248 203.132950,242.877777 208.760101,250.706848 
	C209.642288,242.540817 208.967316,235.461899 205.319473,228.050568 
M323.373749,309.206238 
	C325.290344,308.614838 328.199463,308.599579 328.939301,307.325073 
	C331.250458,303.343689 332.741943,298.886536 334.967072,293.631470 
	C325.260040,297.431519 321.806580,302.146240 323.373749,309.206238 
M325.998169,190.685425 
	C324.916931,195.710602 323.835663,200.735764 322.766479,205.704865 
	C334.643860,198.532974 333.642181,202.377884 329.165131,189.547562 
	C328.735382,188.315994 328.183594,187.127029 327.352600,185.098404 
	C326.787994,187.222336 326.431885,188.562042 325.998169,190.685425 
M203.602402,204.869522 
	C206.888977,198.246368 210.175552,191.623215 213.462128,185.000061 
	C205.916153,186.987656 200.027832,200.140213 202.516266,205.986069 
	C202.750732,205.801590 202.985214,205.617111 203.602402,204.869522 
M334.872559,208.938583 
	C334.639526,208.050766 334.406525,207.162933 334.092651,205.966995 
	C332.777130,206.788193 331.360992,207.165939 330.955017,208.022476 
	C329.828339,210.399597 329.008148,212.949173 328.405487,215.510300 
	C328.336487,215.803452 331.301483,217.176620 331.363586,217.080627 
	C332.681824,215.044083 333.799713,212.875961 334.911896,210.710495 
	C335.044495,210.452286 334.917603,210.060806 334.872559,208.938583 
z"/>
<path fill="#DB427F" opacity="1.000000" stroke="none" 
	d="
M360.687134,232.369690 
	C357.978638,230.910721 355.537476,229.736389 351.480408,227.784729 
	C363.794556,226.673584 362.660858,217.504257 365.331604,210.227539 
	C366.571442,213.673615 367.309784,217.430206 369.195801,220.476212 
	C370.990112,223.374191 373.983368,225.529892 376.832123,228.397079 
	C366.323425,228.578186 368.397430,238.055710 365.588715,245.396805 
	C363.785767,240.439285 362.370148,236.546799 360.687134,232.369690 
z"/>
<path fill="#DF5A8F" opacity="1.000000" stroke="none" 
	d="
M144.095428,318.535583 
	C146.520569,315.616638 148.691040,312.998047 151.405457,309.723175 
	C153.654053,316.961243 153.158981,329.534821 150.291107,332.769165 
	C150.291107,326.837616 150.291107,321.760651 150.291107,315.184235 
	C147.058914,319.087250 144.888748,321.707825 142.482513,324.613464 
	C140.054855,321.739594 137.863846,319.145874 135.672852,316.552124 
	C135.279648,316.633972 134.886459,316.715790 134.493256,316.797607 
	C134.493256,321.860809 134.493256,326.924042 134.493256,331.987244 
	C133.718018,331.983093 132.942795,331.978912 132.167557,331.974731 
	C131.972092,325.160034 132.077805,318.330536 132.126007,311.503845 
	C132.604248,311.177032 133.082489,310.850189 133.560730,310.523376 
	C135.399017,312.469177 137.098801,314.577576 139.124771,316.303009 
	C140.452698,317.433929 142.252380,318.010864 144.095428,318.535583 
z"/>
<path fill="#DB4480" opacity="1.000000" stroke="none" 
	d="
M138.075531,141.758911 
	C138.527222,139.334351 138.914566,137.304703 139.552872,133.959991 
	C142.589951,140.271164 142.360046,147.282379 150.023102,149.458405 
	C141.800674,150.917633 142.085968,157.739166 140.287170,163.687607 
	C138.188507,158.034103 138.408554,151.027252 131.148560,151.001709 
	C133.518555,147.946106 135.764862,145.049957 138.075531,141.758911 
z"/>
<path fill="#DC4984" opacity="1.000000" stroke="none" 
	d="
M359.050354,316.674561 
	C362.706573,316.502289 366.007568,316.502289 369.877350,316.502289 
	C369.877350,322.256256 370.377106,328.189331 369.581451,333.943268 
	C369.333618,335.735657 365.759735,337.837708 363.387665,338.371033 
	C360.455933,339.030182 357.221344,338.148315 355.949097,334.273193 
	C366.512360,336.445831 366.512360,336.445831 367.160706,331.139923 
	C362.424377,332.412628 357.625977,333.007202 355.301819,327.556946 
	C353.492523,323.314117 354.334351,319.392822 359.050354,316.674561 
M366.958862,320.711090 
	C362.716125,317.095795 357.835571,317.959625 357.292786,322.679199 
	C357.069672,324.619263 358.092865,327.405579 359.543121,328.616913 
	C360.744293,329.620209 364.524933,329.671692 365.187073,328.740326 
	C366.576447,326.785980 366.666290,323.907745 366.958862,320.711090 
z"/>
<path fill="#DD4C86" opacity="1.000000" stroke="none" 
	d="
M278.591797,329.843994 
	C280.387390,328.904327 281.816223,328.044006 283.920715,326.776825 
	C282.016632,331.745758 279.004883,333.202667 274.797150,331.966797 
	C270.983032,330.846527 268.518982,326.599854 269.320190,322.527527 
	C270.168152,318.217560 273.610809,315.619324 277.940155,316.021942 
	C282.351532,316.432190 284.662384,319.404114 284.615906,325.069672 
	C280.563446,325.069672 276.498566,325.069672 271.944397,325.069672 
	C272.949554,328.861420 275.003815,330.159668 278.591797,329.843994 
M272.216766,321.929962 
	C275.364319,322.357269 278.511841,322.784576 282.189270,323.283813 
	C279.509338,317.080566 276.631744,316.743469 272.216766,321.929962 
z"/>
<path fill="#DD4C86" opacity="1.000000" stroke="none" 
	d="
M237.319977,329.882080 
	C239.914902,329.143005 242.125305,328.346527 244.336029,327.550964 
	C243.514633,331.359924 241.309921,332.761414 237.059662,332.177643 
	C232.769730,331.588440 229.769745,327.706085 230.203796,323.305328 
	C230.633362,318.950104 233.868622,315.974182 238.147476,315.998383 
	C242.860703,316.025085 245.391800,318.809387 245.793228,324.839539 
	C241.722977,324.839539 237.664368,324.839539 233.605743,324.839539 
	C233.331192,325.275635 233.056641,325.711700 232.782104,326.147797 
	C234.166550,327.373413 235.550995,328.599060 237.319977,329.882080 
M241.287964,319.258698 
	C236.274689,317.400208 234.790588,318.053680 233.518188,322.678528 
	C236.572937,322.678528 239.627701,322.678528 243.190186,322.678528 
	C242.622482,321.449127 242.241898,320.624908 241.287964,319.258698 
z"/>
<path fill="#DC4984" opacity="1.000000" stroke="none" 
	d="
M193.608368,314.925171 
	C194.568802,315.689667 195.573792,316.422241 196.445160,316.287964 
	C201.510651,315.507172 204.601349,317.666321 204.932877,322.693176 
	C205.133270,325.731689 204.969788,328.794189 204.969788,331.845917 
	C204.501007,331.935455 204.032242,332.024994 203.563461,332.114532 
	C203.165894,331.279175 202.491455,330.465454 202.424179,329.604279 
	C202.243408,327.290314 202.823013,324.793671 202.138290,322.681580 
	C201.596878,321.011597 199.375320,318.487518 198.351059,318.684814 
	C196.602859,319.021576 194.343170,320.947784 193.857162,322.651123 
	C193.014862,325.603088 193.362900,328.894745 193.211700,332.043915 
	C192.684174,332.007843 192.156662,331.971771 191.629135,331.935699 
	C191.629135,324.687988 191.629135,317.440277 191.629135,310.192596 
	C192.004532,310.110535 192.379929,310.028442 192.755325,309.946381 
	C193.033951,311.461853 193.312576,312.977325 193.608368,314.925171 
z"/>
<path fill="#DD4E87" opacity="1.000000" stroke="none" 
	d="
M289.260376,330.722717 
	C285.376953,325.660736 284.832184,320.469757 288.846039,318.262329 
	C292.331207,316.345734 296.995850,316.573730 301.620789,315.770325 
	C301.620789,321.417389 301.620789,326.453094 301.620789,332.009216 
	C297.649170,331.662842 293.598724,331.309540 289.260376,330.722717 
M295.204285,318.289398 
	C294.234436,318.424011 293.169617,318.346558 292.311646,318.730896 
	C289.077423,320.179688 287.769379,324.014435 289.502594,327.102051 
	C291.147675,330.032715 293.865509,330.948425 296.709198,329.345490 
	C299.990143,327.496063 300.285492,324.283478 298.782745,321.091644 
	C298.279877,320.023468 296.895721,319.370209 295.204285,318.289398 
z"/>
<path fill="#DC4984" opacity="1.000000" stroke="none" 
	d="
M155.967102,326.950500 
	C154.904053,318.496765 158.728607,314.987549 166.524307,316.675354 
	C167.813461,316.954468 169.243164,316.584290 170.869232,316.500732 
	C170.869232,321.418579 170.869232,326.353912 170.869232,331.449860 
	C165.606720,331.097076 159.268845,335.003571 155.967102,326.950500 
M165.783936,329.552917 
	C166.700867,328.435974 168.012466,327.455902 168.456680,326.175018 
	C169.548660,323.026459 168.836227,319.833679 165.500534,318.914001 
	C163.651733,318.404205 160.539154,319.340027 159.217316,320.760529 
	C156.993073,323.150848 157.354156,326.468781 160.049133,328.600159 
	C161.276672,329.571045 163.358353,329.461975 165.783936,329.552917 
z"/>
<path fill="#DE558C" opacity="1.000000" stroke="none" 
	d="
M349.724854,321.704773 
	C347.703461,320.464386 345.551300,318.721710 343.954956,319.133575 
	C342.638397,319.473206 341.505463,322.272766 341.146851,324.146057 
	C340.671722,326.628052 341.029816,329.269531 341.029816,332.419525 
	C338.002655,330.003510 337.439056,323.188660 339.003479,316.478821 
	C343.371216,317.681732 349.767181,313.088928 351.891510,320.350311 
	C352.952606,323.977295 352.429962,328.067596 352.623627,331.948334 
	C351.845123,331.963470 351.066620,331.978638 350.288116,331.993805 
	C350.136932,328.707428 349.985779,325.421051 349.724854,321.704773 
z"/>
<path fill="#DE558C" opacity="1.000000" stroke="none" 
	d="
M315.302734,318.743500 
	C317.369568,315.347046 325.266815,315.199005 327.784241,318.099274 
	C330.202332,320.885101 330.442627,328.295807 327.369415,333.342499 
	C327.187927,329.399261 326.990295,326.786652 326.967773,324.172516 
	C326.942078,321.191589 326.143402,318.601776 322.742523,318.537659 
	C319.203674,318.470978 317.905426,320.856628 318.013214,324.206787 
	C318.095337,326.758972 318.029510,329.315918 317.210602,331.913940 
	C314.192657,327.956970 315.798676,323.398743 315.302734,318.743500 
z"/>
<path fill="#DE558C" opacity="1.000000" stroke="none" 
	d="
M216.252579,316.426208 
	C220.997177,315.901886 225.925476,314.752380 227.456985,320.367279 
	C228.433716,323.948181 227.639832,328.012054 227.639832,331.859375 
	C227.199295,331.949493 226.758759,332.039612 226.318207,332.129700 
	C225.979080,331.116180 225.431213,330.119934 225.345444,329.085388 
	C225.180801,327.099640 225.806580,324.883148 225.121353,323.151367 
	C224.408340,321.349365 222.738510,319.013123 221.123123,318.681122 
	C218.232422,318.087036 216.732941,320.334991 216.669266,323.313141 
	C216.607361,326.209229 216.475327,329.103821 215.780716,331.951447 
	C213.096863,327.521423 213.509796,318.467407 216.252579,316.426208 
z"/>
<path fill="#DD4C86" opacity="1.000000" stroke="none" 
	d="
M181.021439,318.425171 
	C176.244171,320.544678 174.691238,323.654083 176.806961,326.957214 
	C180.134033,332.151550 183.909470,329.999054 187.834351,326.956451 
	C187.109573,331.078766 184.514374,332.318481 181.071030,332.226959 
	C176.509308,332.105743 174.170471,329.395081 173.563034,325.100189 
	C172.953400,320.789459 175.614136,316.966858 179.628098,316.119446 
	C183.564163,315.288422 186.422577,316.912445 188.103806,321.349915 
	C185.644852,320.254272 183.537613,319.315338 181.021439,318.425171 
z"/>
<path fill="#DF578D" opacity="1.000000" stroke="none" 
	d="
M265.393433,332.068542 
	C261.662018,332.069183 258.358459,332.069183 254.940094,332.069183 
	C254.940094,324.880554 254.940094,318.025787 254.940094,311.170990 
	C255.500015,311.152252 256.059937,311.133484 256.619873,311.114716 
	C256.619873,317.117920 256.619873,323.121094 256.619873,329.228760 
	C261.157074,329.471710 264.675568,329.660095 268.194031,329.848480 
	C268.255463,330.293793 268.316925,330.739105 268.378387,331.184418 
	C267.526001,331.478912 266.673645,331.773407 265.393433,332.068542 
z"/>
<path fill="#DF5A8F" opacity="1.000000" stroke="none" 
	d="
M308.799805,317.641388 
	C310.526947,316.974335 311.912170,316.443878 313.297424,315.913422 
	C313.412628,316.175354 313.527832,316.437256 313.643036,316.699158 
	C311.782440,318.899048 309.267242,320.834900 308.243713,323.372467 
	C307.201385,325.956573 307.627106,329.132874 307.410034,332.049866 
	C306.670258,332.044128 305.930511,332.038361 305.190765,332.032593 
	C305.190765,327.120514 305.190765,322.208405 305.190765,317.296326 
	C306.279816,317.456879 307.368896,317.617462 308.799805,317.641388 
z"/>
<path fill="#DD4C86" opacity="1.000000" stroke="none" 
	d="
M379.797974,217.865295 
	C379.402863,219.100967 379.081604,219.980286 378.830231,220.668274 
	C377.249298,218.472092 375.712189,216.336823 374.346130,214.439178 
	C375.612000,212.209015 377.135529,209.524857 378.521149,207.083710 
	C379.738464,209.100555 381.187378,211.501114 382.725250,214.049011 
	C381.994476,214.935089 380.933105,216.222015 379.797974,217.865295 
z"/>
<path fill="#DD4E87" opacity="1.000000" stroke="none" 
	d="
M125.136185,164.878967 
	C126.769272,162.786224 128.068024,160.823975 129.403137,158.806763 
	C130.531616,160.699768 131.873230,162.950333 133.014175,164.864243 
	C131.768631,167.356216 130.520065,169.854248 129.379059,172.137070 
	C127.991463,169.976303 126.396652,167.492874 125.136185,164.878967 
z"/>
<path fill="#DB4480" opacity="1.000000" stroke="none" 
	d="
M334.975952,329.559540 
	C334.209869,330.408356 333.448792,330.807404 332.687683,331.206421 
	C332.687683,326.251068 332.687683,321.295685 332.687683,316.340332 
	C333.452087,316.327515 334.216522,316.314697 334.980927,316.301880 
	C334.980927,320.571167 334.980927,324.840485 334.975952,329.559540 
z"/>
<path fill="#E576A2" opacity="1.000000" stroke="none" 
	d="
M207.988373,324.953918 
	C207.988373,321.721802 207.988373,318.963257 207.988373,316.204742 
	C211.847260,319.319031 211.715332,329.445740 208.426727,332.450928 
	C208.258179,329.750275 208.123276,327.588928 207.988373,324.953918 
z"/>
<path fill="#FDF7FA" opacity="1.000000" stroke="none" 
	d="
M242.473160,259.724579 
	C244.275024,263.313660 246.680801,267.071899 247.195877,271.073517 
	C248.034988,277.592499 246.500427,283.855621 241.292206,288.741760 
	C237.007950,283.251556 237.443466,272.700653 242.473160,259.724579 
z"/>
<path fill="#FDF4F7" opacity="1.000000" stroke="none" 
	d="
M329.983459,259.129730 
	C332.141998,254.908386 333.615784,250.546249 339.686981,248.554565 
	C337.185425,260.701019 331.203979,270.301880 326.641205,280.463257 
	C326.051422,280.317322 325.461670,280.171387 324.871887,280.025482 
	C326.535797,273.181213 328.199738,266.336975 329.983459,259.129730 
z"/>
<path fill="#FDF7FA" opacity="1.000000" stroke="none" 
	d="
M170.040710,201.580872 
	C172.146851,201.197052 173.881561,200.971420 177.351730,200.520065 
	C175.047745,205.934555 173.505066,210.325714 171.285980,214.343262 
	C170.548187,215.679016 167.601517,217.109344 166.507980,216.618317 
	C164.962250,215.924255 163.444946,213.569977 163.247482,211.778564 
	C162.718277,206.977356 165.332642,203.688354 170.040710,201.580872 
z"/>
<path fill="#FDF5F8" opacity="1.000000" stroke="none" 
	d="
M205.550720,228.381134 
	C208.967316,235.461899 209.642288,242.540817 208.760101,250.706848 
	C203.132950,242.877777 199.730103,235.298248 201.399826,225.073730 
	C203.069061,226.341446 204.194260,227.196014 205.550720,228.381134 
z"/>
<path fill="#FDF5F8" opacity="1.000000" stroke="none" 
	d="
M323.185791,308.880768 
	C321.806580,302.146240 325.260040,297.431519 334.967072,293.631470 
	C332.741943,298.886536 331.250458,303.343689 328.939301,307.325073 
	C328.199463,308.599579 325.290344,308.614838 323.185791,308.880768 
z"/>
<path fill="#FDF4F7" opacity="1.000000" stroke="none" 
	d="
M326.036987,190.293594 
	C326.431885,188.562042 326.787994,187.222336 327.352600,185.098404 
	C328.183594,187.127029 328.735382,188.315994 329.165131,189.547562 
	C333.642181,202.377884 334.643860,198.532974 322.766479,205.704865 
	C323.835663,200.735764 324.916931,195.710602 326.036987,190.293594 
z"/>
<path fill="#FCF0F5" opacity="1.000000" stroke="none" 
	d="
M203.411041,205.151077 
	C202.985214,205.617111 202.750732,205.801590 202.516266,205.986069 
	C200.027832,200.140213 205.916153,186.987656 213.462128,185.000061 
	C210.175552,191.623215 206.888977,198.246368 203.411041,205.151077 
z"/>
<path fill="#FCF0F5" opacity="1.000000" stroke="none" 
	d="
M334.891754,209.334839 
	C334.917603,210.060806 335.044495,210.452286 334.911896,210.710495 
	C333.799713,212.875961 332.681824,215.044083 331.363586,217.080627 
	C331.301483,217.176620 328.336487,215.803452 328.405487,215.510300 
	C329.008148,212.949173 329.828339,210.399597 330.955017,208.022476 
	C331.360992,207.165939 332.777130,206.788193 334.092651,205.966995 
	C334.406525,207.162933 334.639526,208.050766 334.891754,209.334839 
z"/>
<path fill="#FDF7FA" opacity="1.000000" stroke="none" 
	d="
M367.124268,321.059937 
	C366.666290,323.907745 366.576447,326.785980 365.187073,328.740326 
	C364.524933,329.671692 360.744293,329.620209 359.543121,328.616913 
	C358.092865,327.405579 357.069672,324.619263 357.292786,322.679199 
	C357.835571,317.959625 362.716125,317.095795 367.124268,321.059937 
z"/>
<path fill="#FCF0F5" opacity="1.000000" stroke="none" 
	d="
M272.304047,321.547363 
	C276.631744,316.743469 279.509338,317.080566 282.189270,323.283813 
	C278.511841,322.784576 275.364319,322.357269 272.304047,321.547363 
z"/>
<path fill="#FCF0F5" opacity="1.000000" stroke="none" 
	d="
M241.574646,319.529724 
	C242.241898,320.624908 242.622482,321.449127 243.190186,322.678528 
	C239.627701,322.678528 236.572937,322.678528 233.515015,322.680542 
	C234.790588,318.053680 236.274689,317.400208 241.574646,319.529724 
z"/>
<path fill="#FDF7FA" opacity="1.000000" stroke="none" 
	d="
M295.559326,318.408356 
	C296.895721,319.370209 298.279877,320.023468 298.782745,321.091644 
	C300.285492,324.283478 299.990143,327.496063 296.709198,329.345490 
	C293.865509,330.948425 291.147675,330.032715 289.502594,327.102051 
	C287.769379,324.014435 289.077423,320.179688 292.311646,318.730896 
	C293.169617,318.346558 294.234436,318.424011 295.559326,318.408356 
z"/>
<path fill="#FDF7FA" opacity="1.000000" stroke="none" 
	d="
M165.418274,329.697815 
	C163.358353,329.461975 161.276672,329.571045 160.049133,328.600159 
	C157.354156,326.468781 156.993073,323.150848 159.217316,320.760529 
	C160.539154,319.340027 163.651733,318.404205 165.500534,318.914001 
	C168.836227,319.833679 169.548660,323.026459 168.456680,326.175018 
	C168.012466,327.455902 166.700867,328.435974 165.418274,329.697815 
z"/>
</svg>